User Type,Username,Date,Text
,Tgiri2,2010-06-30T18:30Z,Thanks!
,roshant,2010-07-04T04:17Z,"Would u guys plz consider a rips of newly out Blu Ray clasic masterpices in 720p.

The Leopard (1963)-Luchino Visconti - 8.0/10 IMDB
Close-Up (1990)-Abbas Kiarostami-8.1/10 IMDB
Il Deserto rosso(Red Desert-1964)-Michelangelo Antonioni -7.7/10 IMDB 
Everlasting Moments (2008)-Jan Troell- 7.6/10 IMDB
A Star Is Born (1954)-George Cukor-7.8/10 IMDB
Stagecoach (1939)-John Ford  7.8/10 IMDB
Walkabout (1971)- Nicolas Roeg  7.7/10 IMDB
Doctor Zhivago (1965)-David Lean 8.0/10 IMDB
My Life to Live (1962)(Vivre sa vie) Jean-Luc Godard- 7.9/10 IMDB
Paris, Texas (1984)- Wim Wenders 7.9/10 IMDB
Blazing Saddles (1974)-Mel Brooks - 7.8/10 IMDB
Wings of Desire (1988)- Wim Wenders -8.0/10 IMDB
Easy Rider (1969)-Dennis Hopper- 7.3/10 IMDB
Pierrot le fou (1965)-Jean-Luc Godard -7.6/10 IMDB
MASH (1970)-Robert Altman-7.8/10 IMDB
Kagemusha (1980)-Akira Kurosawa 7.9/10 IMDB
Repulsion (1965)-Roman Polanski 7.9/10 IMDB
Midnight Express (1978)- Alan Parker 7.6/10 IMDB
Field of Dreams (1989) Phil Alden Robinson-7.7 IMDB
Waltz with Bashir (2008)-Ari Folman  8.0/10 IMDB"
,Backlit01,2010-08-14T01:27Z,thx mate
,Scandale,2010-12-18T16:27Z,"General
Format                           : MPEG-4
Format profile                   : Base Media
Codec ID                         : isom
File size                        : 2.05 GiB
Duration                         : 2h 9mn
Overall bit rate                 : 2 260 Kbps
Encoded date                     : UTC 2010-03-16 14:42:22
Tagged date                      : UTC 2010-03-16 14:42:22

Video
ID                               : 1
Format                           : AVC
Format/Info                      : Advanced Video Codec
Format profile                   : High@L4.1
Format settings, CABAC           : Yes
Format settings, ReFrames        : 8 frames
Codec ID                         : avc1
Codec ID/Info                    : Advanced Video Coding
Duration                         : 2h 9mn
Bit rate mode                    : Variable
Bit rate                         : 1 957 Kbps
Maximum bit rate                 : 40.0 Mbps
Width                            : 1 280 pixels
Height                           : 688 pixels
Display aspect ratio             : 1.860
Frame rate mode                  : Constant
Frame rate                       : 23.976 fps
Color space                      : YUV
Chroma subsampling               : 4:2:0
Bit depth                        : 8 bits
Scan type                        : Progressive
Bits/(Pixel*Frame)               : 0.093
Stream size                      : 1.77 GiB (87%)
Writing library                  : x264 core 89 r1471kGIT 1144615
Encoding settings                : cabac=1 / ref=8 / deblock=1:-1:-1 / analyse=0x3:0x113 / me=umh / subme=9 / psy=1 / psy_rd=1.00:1.00 / mixed_ref=1 / me_range=16 / chroma_me=1 / trellis=2 / 8x8dct=1 / cqm=0 / deadzone=21,11 / fast_pskip=1 / chroma_qp_offset=-4 / threads=6 / sliced_threads=0 / slices=4 / nr=0 / decimate=1 / interlaced=0 / constrained_intra=0 / bframes=4 / b_pyramid=2 / b_adapt=2 / b_bias=0 / direct=1 / wpredb=1 / wpredp=2 / keyint=24 / keyint_min=2 / scenecut=40 / intra_refresh=0 / rc_lookahead=24 / rc=2pass / mbtree=1 / bitrate=1957 / ratetol=1.0 / qcomp=0.60 / qpmin=10 / qpmax=51 / qpstep=4 / cplxblur=20.0 / qblur=0.5 / vbv_maxrate=40000 / vbv_bufsize=30000 / ip_ratio=1.40 / aq=1:1.00 / pulldown=0 / nal_hrd=vbr
Encoded date                     : UTC 2010-03-16 00:56:15
Tagged date                      : UTC 2010-03-16 14:44:17

Audio
ID                               : 2
Format                           : AAC
Format/Info                      : Advanced Audio Codec
Format version                   : Version 4
Format profile                   : LC
Format settings, SBR             : No
Codec ID                         : 40
Duration                         : 2h 9mn
Bit rate mode                    : Variable
Bit rate                         : 299 Kbps
Maximum bit rate                 : 416 Kbps
Channel(s)                       : 6 channels
Channel positions                : Front: L C R, Side: L R, LFE
Sampling rate                    : 48.0 KHz
Stream size                      : 277 MiB (13%)
Encoded date                     : UTC 2010-03-16 14:44:03
Tagged date                      : UTC 2010-03-16 14:44:17"
,Douglas_Quaid,2011-02-02T17:08Z,"Bad torrent.

The 6 channel audio is out of sync and the added 2 channel audio is a commentary track......"
